<?xml version="1.0" encoding="utf-8"?>
<!-- Generator: Adobe Illustrator 27.9.0, SVG Export Plug-In . SVG Version: 6.00 Build 0)  -->
<svg version="1.1" id="Layer_1" xmlns="http://www.w3.org/2000/svg" xmlns:xlink="http://www.w3.org/1999/xlink" x="0px" y="0px"
	 viewBox="0 0 500 500" style="enable-background:new 0 0 500 500;" xml:space="preserve">
<style type="text/css">
	.st0{fill:url(#SVGID_1_);}
	.st1{fill:#FFFFFF;}
</style>
<g>
	
		<linearGradient id="SVGID_1_" gradientUnits="userSpaceOnUse" x1="-270.65" y1="105.4062" x2="-270.65" y2="93.5383" gradientTransform="matrix(40 0 0 39.7778 11076.001 -3715.3445)">
		<stop  offset="0" style="stop-color:#0062E0"/>
		<stop  offset="1" style="stop-color:#19AFFF"/>
	</linearGradient>
	<path class="st0" d="M209.7,492.1C93.5,471.3,5.5,371,5.5,250C5.5,115.5,115.5,5.5,250,5.5s244.5,110,244.5,244.5
		c0,121-88,221.3-204.2,242.1l-13.4-11h-53.8L209.7,492.1z"/>
	<path class="st1" d="M345.4,318.5l11-68.5h-64.8v-47.7c0-19.6,7.3-34.2,36.7-34.2H360v-62.3c-17.1-2.4-36.7-4.9-53.8-4.9
		c-56.2,0-95.4,34.2-95.4,95.4V250h-61.1v68.5h61.1v172.4c13.4,2.4,26.9,3.7,40.3,3.7s26.9-1.2,40.3-3.7V318.5H345.4z"/>
</g>
</svg>
