<?xml version="1.0" encoding="utf-8"?>
<!-- Generator: Adobe Illustrator 27.9.0, SVG Export Plug-In . SVG Version: 6.00 Build 0)  -->
<svg version="1.1" id="Layer_1" xmlns="http://www.w3.org/2000/svg" xmlns:xlink="http://www.w3.org/1999/xlink" x="0px" y="0px"
	 viewBox="0 0 500 500" style="enable-background:new 0 0 500 500;" xml:space="preserve">
<style type="text/css">
	.st0{fill:url(#SVGID_1_);}
	.st1{fill:url(#SVGID_00000120555442547032035570000015929363436885553583_);}
	.st2{fill:#654C9F;}
</style>
<g id="Symbol">
	<g>
		
			<radialGradient id="SVGID_1_" cx="49.5389" cy="490.6274" r="711.335" gradientTransform="matrix(0.9986 -5.233596e-02 -4.448556e-02 -0.8488 -14.6855 870.1025)" gradientUnits="userSpaceOnUse">
			<stop  offset="0" style="stop-color:#FED576"/>
			<stop  offset="0.2634" style="stop-color:#F47133"/>
			<stop  offset="0.6091" style="stop-color:#BC3081"/>
			<stop  offset="1" style="stop-color:#4C63D2"/>
		</radialGradient>
		<path class="st0" d="M88.9,17.1C72.7,23.4,59,31.8,45.3,45.5C31.6,59.1,23.2,72.9,16.9,89c-6.1,15.6-10.2,33.5-11.4,59.7
			S4,183.3,4,250.1s0.3,75.2,1.5,101.4c1.2,26.2,5.4,44.1,11.4,59.7c6.3,16.2,14.7,29.9,28.4,43.6s27.4,22.1,43.6,28.4
			c15.6,6.1,33.5,10.2,59.7,11.4c26.2,1.2,34.6,1.5,101.4,1.5s75.2-0.3,101.4-1.5c26.2-1.2,44.1-5.4,59.7-11.4
			c16.2-6.3,29.9-14.7,43.6-28.4c13.7-13.7,22.1-27.4,28.4-43.6c6.1-15.6,10.2-33.5,11.4-59.7c1.2-26.2,1.5-34.6,1.5-101.4
			s-0.3-75.2-1.5-101.4s-5.4-44.1-11.4-59.7c-6.3-16.1-14.7-29.9-28.3-43.5c-13.7-13.7-27.4-22.1-43.6-28.4
			C395.6,11,377.7,6.9,351.5,5.7s-34.6-1.5-101.4-1.5s-75.2,0.3-101.4,1.5C122.4,6.8,104.5,11,88.9,17.1z M349.4,49.9
			c24,1.1,37,5.1,45.7,8.5c11.5,4.5,19.7,9.8,28.3,18.4c8.6,8.6,13.9,16.8,18.4,28.3c3.4,8.7,7.4,21.7,8.5,45.7
			c1.2,25.9,1.4,33.7,1.4,99.4s-0.3,73.5-1.4,99.4c-1.1,24-5.1,37-8.5,45.7c-4.5,11.5-9.8,19.7-18.4,28.3
			c-8.6,8.6-16.8,13.9-28.3,18.4c-8.7,3.4-21.7,7.4-45.7,8.5c-25.9,1.2-33.7,1.4-99.4,1.4s-73.5-0.3-99.4-1.4
			c-24-1.1-37-5.1-45.7-8.5c-11.5-4.5-19.7-9.8-28.3-18.4s-13.9-16.8-18.4-28.3c-3.4-8.7-7.4-21.7-8.5-45.7
			c-1.2-25.9-1.4-33.7-1.4-99.4s0.3-73.5,1.4-99.4c1.1-24,5.1-37,8.5-45.7c4.5-11.5,9.8-19.7,18.4-28.3s16.8-13.9,28.3-18.4
			c8.7-3.4,21.7-7.4,45.7-8.5c25.9-1.2,33.7-1.4,99.4-1.4S323.5,48.7,349.4,49.9z"/>
		
			<radialGradient id="SVGID_00000071552932347856819440000013925606085791973012_" cx="147.262" cy="375.2952" r="365.2801" gradientTransform="matrix(0.9986 -5.233596e-02 -4.448556e-02 -0.8488 -2.073 679.5958)" gradientUnits="userSpaceOnUse">
			<stop  offset="0" style="stop-color:#FED576"/>
			<stop  offset="0.2634" style="stop-color:#F47133"/>
			<stop  offset="0.6091" style="stop-color:#BC3081"/>
			<stop  offset="1" style="stop-color:#4C63D2"/>
		</radialGradient>
		<path style="fill:url(#SVGID_00000071552932347856819440000013925606085791973012_);" d="M123.7,250.2
			c0,69.8,56.6,126.3,126.3,126.3s126.3-56.6,126.3-126.3S319.8,123.9,250,123.9S123.7,180.4,123.7,250.2z M332,250.2
			c0,45.3-36.7,82-82,82s-82-36.7-82-82s36.7-82,82-82S332,204.9,332,250.2z"/>
		<circle class="st2" cx="381.4" cy="118.9" r="29.5"/>
	</g>
</g>
</svg>
