<?xml version="1.0" encoding="utf-8"?>
<!-- Generator: Adobe Illustrator 27.9.0, SVG Export Plug-In . SVG Version: 6.00 Build 0)  -->
<svg version="1.1" id="Layer_1" xmlns="http://www.w3.org/2000/svg" xmlns:xlink="http://www.w3.org/1999/xlink" x="0px" y="0px"
	 viewBox="0 0 500 500" style="enable-background:new 0 0 500 500;" xml:space="preserve">
<style type="text/css">
	.st0{fill:#FF004F;}
	.st1{fill:#00F2EA;}
</style>
<g>
	<path class="st0" d="M354.1,182.2c31.5,22.5,70.1,35.7,111.8,35.7v-80.1c-7.9,0-15.8-0.8-23.5-2.5v63.1
		c-41.7,0-80.2-13.2-111.8-35.7v163.6c0,81.8-66.4,148.1-148.2,148.1c-30.5,0-58.9-9.2-82.5-25.1c26.9,27.5,64.5,44.6,106,44.6
		c81.9,0,148.2-66.3,148.2-148.2L354.1,182.2L354.1,182.2z M383,101.3c-16.1-17.6-26.7-40.3-29-65.4V25.6h-22.2
		C337.4,57.5,356.5,84.8,383,101.3L383,101.3z M151.7,386.5c-9-11.8-13.9-26.2-13.8-41c0-37.4,30.4-67.8,67.8-67.8
		c7,0,13.9,1.1,20.6,3.2V199c-7.8-1.1-15.6-1.5-23.5-1.4v63.8c-6.7-2.1-13.6-3.2-20.6-3.2c-37.4,0-67.8,30.3-67.8,67.8
		C114.4,352.5,129.5,375.4,151.7,386.5z"/>
	<path d="M330.6,162.7c31.5,22.5,70.1,35.7,111.8,35.7v-63.1c-23.3-5-43.9-17.1-59.3-34c-26.5-16.5-45.6-43.8-51.2-75.7h-58.4v320.1
		c-0.1,37.3-30.4,67.5-67.8,67.5c-22,0-41.6-10.5-54-26.7c-22.1-11.2-37.3-34.1-37.3-60.5c0-37.4,30.4-67.8,67.8-67.8
		c7.2,0,14.1,1.1,20.6,3.2v-63.8C122.3,199.3,57.6,265,57.6,345.7c0,40.3,16.1,76.9,42.2,103.6c23.6,15.8,52,25.1,82.5,25.1
		c81.9,0,148.2-66.3,148.2-148.1L330.6,162.7L330.6,162.7z"/>
	<path class="st1" d="M442.4,135.3v-17.1c-21,0-41.5-5.8-59.3-16.9C398.8,118.6,419.5,130.4,442.4,135.3z M331.8,25.6
		c-0.5-3.1-0.9-6.1-1.2-9.2V6.1H250v320.1c-0.1,37.3-30.4,67.5-67.8,67.5c-11,0-21.3-2.6-30.5-7.2c12.4,16.3,32,26.7,54,26.7
		c37.4,0,67.7-30.2,67.8-67.5V25.6H331.8z M202.7,197.6v-18.2c-6.7-0.9-13.5-1.4-20.3-1.4c-81.9,0-148.2,66.3-148.2,148.1
		c0,51.3,26.1,96.5,65.7,123.1c-26.1-26.7-42.2-63.3-42.2-103.6C57.6,265,122.3,199.3,202.7,197.6z"/>
</g>
</svg>
